<?xml version="1.0" encoding="UTF-8"?>
<svg id="Layer_2" data-name="Layer 2" xmlns="http://www.w3.org/2000/svg" viewBox="0 0 500.82 30.45">
  <defs>
    <style>
      .cls-1 {
        fill: #fff;
        stroke-width: 0px;
      }
    </style>
  </defs>
  <g id="Capa_1" data-name="Capa 1">
    <g>
      <path class="cls-1" d="M4.3,12.35c0-1.49-.08-6.4-.12-7.12-.12-2.33-.76-2.41-2.62-2.41H.32c-.24,0-.32-.08-.32-.28v-1.01c0-.2.08-.28.32-.28.64,0,2.45.12,5.35.12,1.29,0,3.7-.12,5.11-.12,3.14,0,5.71.28,7.12,1.08,2.29,1.25,3.1,3.1,3.1,5.47,0,3.98-1.77,4.99-4.91,6.63l.12.08c3.9,1.29,6.52,3.7,6.52,7.96,0,2.05-1.25,4.86-3.1,6.03-1.69,1.05-3.98,1.45-7.68,1.45-2.78,0-4.34-.12-6.03-.12-2.01,0-4.38.12-5.15.12-.48,0-.56-.08-.56-.24v-1.04c0-.2.08-.28.36-.28h1.93c1.25,0,1.45-.48,1.61-1.77.12-.93.2-6.24.2-9.53v-4.75ZM7.84,13.92c.76.08,1.45.08,2.13.08,2.29,0,4.1-.36,5.07-1.04,1.65-1.25,2.25-3.06,2.25-4.83,0-1.53-.48-3.14-1.97-4.22-1.45-1.01-3.46-1.37-5.51-1.37-.56,0-1.01-.04-1.33.04-.32.08-.56.36-.56.72-.04.8-.08,4.3-.08,7.64v2.98ZM7.84,17.78v5.55c0,3.7.88,5.35,4.22,5.35s6.48-1.61,6.48-6.39c0-3.26-1.65-5.39-4.02-6.31-1.65-.64-3.54-.69-5.39-.69h-1.29v2.49Z"/>
      <path class="cls-1" d="M63.08,11.83c0-2.57-.08-6.84-.12-7.56-.08-1.04-.28-1.45-1.49-1.45h-1.89c-.24,0-.28-.2-.28-.4v-.88c0-.2.04-.28.28-.28.44,0,1.89.12,5.23.12,3.9,0,5.59-.12,5.95-.12.32,0,.36.12.36.32v.93c0,.2-.08.32-.4.32h-2.41c-1.25,0-1.41.4-1.41,1.57,0,.52-.12,6.6-.12,9.41v3.46c0,.69,0,9.37.12,11.02.88.08,8.85.16,10.09,0,2.37-.36,4.79-5.19,5.35-6.76.08-.16.16-.24.32-.16l.64.24c.12.08.12.12.08.36-.12.28-1.73,6.92-1.97,8.01-.52-.04-3.66-.08-7.24-.08-3.58-.04-7.52-.04-9.69-.04-1.57,0-2.74.04-3.58.04-.8.04-1.29.08-1.57.08s-.32-.08-.32-.28v-1.01c0-.2.04-.28.28-.28h1.93c1.49,0,1.73-.56,1.73-1.09,0-.76.12-10.78.12-13.23v-2.25Z"/>
      <path class="cls-1" d="M124.62,18.66c-.4,1.01-2.61,7.12-2.81,7.96-.04.28-.12.68-.12.88,0,.56.48.89,1.37.89h1.89c.28,0,.4.08.4.28v.93c0,.28-.12.36-.32.36-.56,0-2.21-.12-4.58-.12-2.94,0-3.82.12-4.38.12-.2,0-.28-.08-.28-.32v-.97c0-.2.16-.28.32-.28h1.41c1.21,0,1.77-.56,2.33-1.85.28-.64,3.22-8.08,4.38-11.38.28-.8,3.54-9.45,3.9-10.54.12-.4.32-.93.04-1.37-.12-.16-.28-.36-.28-.52,0-.12.08-.28.36-.36,1.13-.24,2.9-1.45,3.34-2.01.2-.2.32-.36.52-.36.24,0,.32.24.44.69.76,2.53,3.9,11.54,4.67,14.12.92,3.14,3.54,10.62,4.1,11.79.68,1.33,1.73,1.81,2.73,1.81h1.33c.24,0,.32.12.32.28v1.01c0,.2-.12.28-.4.28-.72,0-1.57-.12-4.83-.12s-4.75.12-5.67.12c-.2,0-.32-.12-.32-.36v-.93c0-.24.12-.28.36-.28h1.01c1.13,0,1.49-.4,1.21-1.53-.32-1.45-1.97-6.59-2.53-8.2h-9.89ZM134.03,17.21c-.36-1.21-3.62-11.26-3.82-11.86-.12-.28-.2-.56-.32-.56-.16,0-.32.28-.44.6-.2.52-4.02,10.82-4.3,11.83h8.89Z"/>
      <path class="cls-1" d="M183.19,28.35c-.48-.36-.72-.48-.92-.48-.24,0-.4.28-.64.69-.24.44-.44.48-.72.48-.24,0-.44-.2-.36-.64.16-1.01.56-6.11.68-7.28.04-.24.12-.24.28-.24l.6.04c.16,0,.24.08.24.32.04,1.29.12,2.61,1.45,4.66,1.21,1.89,3.42,2.98,5.63,2.98,2.41,0,5.47-1.49,5.47-5.11,0-4.14-2.98-5.67-6.19-6.8-1.25-.44-4.14-1.45-5.87-3.26-1.33-1.33-2.01-3.22-2.01-5.87,0-2.01,1.25-3.98,2.49-5.15,1.45-1.37,3.46-1.93,5.63-1.93,2.29,0,4.06.69,4.75,1.01.36.2.56.16.76-.04l.52-.48c.2-.16.32-.24.52-.24s.32.32.32.69c0,1.41.52,5.51.56,6.39,0,.2-.04.28-.2.32l-.48.12c-.12.04-.2,0-.24-.12-.32-1.17-.85-2.74-2.49-4.47-1.09-1.17-2.49-1.73-4.38-1.73-3.58,0-4.87,2.66-4.87,4.71,0,1.13.24,2.46,1.25,3.5,1.17,1.17,3.42,2.05,4.58,2.41,2.78.89,5.03,1.57,6.48,3.34,1.04,1.25,1.77,2.81,1.77,5.47,0,4.75-2.9,8.81-8.2,8.81-2.82,0-4.79-.84-6.4-2.09Z"/>
      <path class="cls-1" d="M237.66,11.9c0-1.77-.08-7.44-.08-7.92,0-.76-.56-1.16-1.65-1.16h-2.33c-.16,0-.28-.08-.28-.24v-1.08c0-.16.12-.24.28-.24.24,0,.72.04,1.65.04.92.04,2.29.08,4.22.08.68,0,14.8.04,15.44-.16.12.69,1.33,6.11,1.61,7.16.04.16,0,.24-.08.28l-.72.28c-.12.04-.2-.04-.32-.28-.36-.64-1.41-2.13-2.57-3.7-.68-.92-1.65-1.61-2.81-1.89-1.01-.24-7.4-.36-8.61-.36,0,.52-.04,8.61-.04,11.06v2.01c.56,0,4.79-.12,5.27-.2.88-.16,1.41-.52,1.77-1.77.12-.4.28-1.25.4-1.97.04-.16.12-.28.28-.28l.8.04c.16,0,.24.12.24.28-.08.69-.08,4.02-.08,4.58,0,1.45.12,3.38.2,4.18,0,.2-.08.28-.28.32l-.76.16c-.2.04-.24-.08-.28-.28-.04-.32-.32-1.53-.44-1.97-.28-.97-.76-1.45-1.65-1.57-1.89-.24-4.83-.24-5.47-.24v1.49c0,1.21.04,7.96.04,8.57,0,1.09.2,1.29,1.57,1.29h1.97c.24,0,.36.08.36.24v1.01c0,.24-.08.32-.32.32-.4,0-2.01-.12-5.47-.12-3.14,0-4.67.12-5.27.12-.16,0-.24-.08-.24-.28v-1.08c0-.16.12-.2.28-.2h1.81c1.05,0,1.37-.16,1.41-.89.08-.8.16-5.87.16-12.79v-2.82Z"/>
      <path class="cls-1" d="M297.81,14.44c.32,0,4.62-.16,5.11-.24,1.17-.2,1.49-.52,1.85-1.77.12-.4.28-1.21.32-1.97,0-.2.12-.28.28-.28l1.01.04c.2,0,.28.16.24.32-.12.69-.12,3.98-.12,4.59,0,1.41.16,3.34.24,4.18,0,.2-.08.28-.24.32l-.88.12c-.2.04-.28-.08-.32-.36-.08-.52-.32-1.45-.44-1.89-.24-.85-.68-1.45-1.73-1.57-1.89-.2-4.67-.2-5.31-.2v2.49c0,2.17.08,6.07.08,6.88.04,2.09,1.05,2.9,2.29,3.14.8.16,1.97.28,2.98.28.68,0,2.69-.04,3.54-.12.68-.08,2.45-.52,3.5-1.41.48-.4,2.73-3.3,3.3-4.22.12-.2.24-.36.48-.24l.64.36c.2.12.2.24.08.56l-2.13,5.91c-.12.36-.4.6-.88.6-.2,0-1.09-.04-3.5-.08-2.41,0-6.31-.04-12.59-.04-1.49,0-2.61.04-3.42.04-.85.04-1.37.08-1.73.08-.24,0-.36-.08-.36-.28v-1.08c0-.16.12-.2.4-.2h1.61c1.85,0,2.01-.28,2.01-1.77v-13.47c0-3.34-.08-8.37-.12-8.77-.16-1.29-.56-1.57-2.05-1.57h-1.45c-.2,0-.32-.04-.32-.28v-1.08c0-.12.08-.2.28-.2.88,0,2.29.12,4.95.12h1.77c3.98,0,7.96-.04,11.95-.04.64,0,1.41-.08,1.61-.08s.28.08.32.2c.16.56,1.93,6.07,2.05,6.47.04.16.04.28-.12.36l-.6.32c-.12.08-.28-.04-.32-.12-.08-.16-3.06-3.98-4.02-4.58-.85-.56-1.97-1.04-3.06-1.08l-7.16-.16v11.78Z"/>
      <path class="cls-1" d="M366.71,23.41c.56-.61,4.58-10.22,4.91-10.74.28-.56,4.67-10.01,4.79-10.82.08-.44.52-.48.92-.48,5.35,0,6.72-.12,7.16-.12.2,0,.24.12.24.28v.93c0,.24-.04.36-.32.36h-1.77c-1.21,0-1.33.72-1.33,1.65,0,1.17-.12,6.92-.12,9.61v2.82c0,2.01.12,8.53.12,9.33,0,1.53.36,2.17,1.37,2.17h2.37c.24,0,.28.12.28.28v.93c0,.24-.04.36-.36.36-.48,0-1.21-.12-5.63-.12-3.7,0-5.27.12-5.79.12-.28,0-.32-.12-.32-.36v-.93c0-.2.04-.28.32-.28h2.74c.68,0,1.04-.24,1.13-1.45.04-.48.08-7.48.08-10.45v-2.57c0-2.66,0-9.81-.12-10.18h-.08c-.4.52-6.11,13.19-6.31,13.59-.24.48-4.71,10.74-4.87,11.1-.16.36-.48.97-.8.97-.24,0-.44-.32-.6-.72-.12-.28-5.27-12.99-5.47-13.47-.76-1.85-4.42-10.86-4.99-11.34-.16.56-.24,10.74-.24,11.22s-.04,8.97.08,10.38c.2,2.29.56,2.94,1.85,2.94h2.01c.24,0,.28.12.28.28v1.01c0,.16-.04.28-.36.28-.44,0-1.53-.12-4.87-.12s-4.83.12-5.19.12c-.32,0-.36-.04-.36-.36v-.97c0-.12.04-.24.24-.24h2.13c1.53,0,1.89-1.05,2.13-2.42.48-2.85.6-13.15.6-13.88,0-.56,0-6.63-.04-7.8-.04-.93,0-1.49-1.65-1.49h-2.45c-.24,0-.28-.12-.28-.28v-1.04c0-.12.04-.24.28-.24.4,0,1.49.12,4.91.12,1.89,0,2.94-.12,3.42-.12.6,0,.85.16,1.05.68l8.93,21.48Z"/>
      <path class="cls-1" d="M428.17,29.6c-2.73-1.09-4.14-2.86-4.79-5.39-.48-1.81-.64-4.51-.64-9.77V4.87c0-1.41-.28-2.05-1.53-2.05h-1.89c-.24,0-.28-.08-.28-.36v-.89c0-.24.04-.32.36-.32.4,0,2.37.12,5.51.12s5.07-.12,5.51-.12c.32,0,.36.08.36.24v1.04c0,.2-.04.28-.32.28h-2.01c-1.17,0-1.85.76-1.93,1.65-.04.36-.08,3.18-.08,5.23v2.66c0,2.13.16,7.24.2,8.53.04,1.85.36,3.74,1.29,5.11,1.49,2.17,4.06,2.9,6.4,2.9s4.62-.76,6.03-2.21c1.57-1.69,2.09-4.1,2.09-7.08v-8.61c0-3.06-.08-5.39-.2-6.4-.12-1.04-.76-1.77-1.81-1.77h-1.77c-.24,0-.28-.12-.28-.32v-.97c0-.2.04-.28.28-.28.4,0,2.25.12,4.95.12s4.06-.12,4.42-.12.4.16.4.28v.88c0,.24-.04.4-.24.4h-1.65c-1.49,0-1.61,1.12-1.73,1.61-.08.4-.08,6.11-.08,6.67s-.08,7.6-.2,9.17c-.24,3.3-1.13,5.83-3.38,7.76-1.61,1.49-4.06,2.41-7.56,2.41-2.09,0-4.1-.28-5.43-.84Z"/>
      <path class="cls-1" d="M486.22,28.35c-.48-.36-.72-.48-.92-.48-.24,0-.4.28-.64.69-.24.44-.44.48-.72.48-.24,0-.44-.2-.36-.64.16-1.01.56-6.11.68-7.28.04-.24.12-.24.28-.24l.6.04c.16,0,.24.08.24.32.04,1.29.12,2.61,1.45,4.66,1.21,1.89,3.42,2.98,5.63,2.98,2.41,0,5.47-1.49,5.47-5.11,0-4.14-2.98-5.67-6.19-6.8-1.25-.44-4.14-1.45-5.87-3.26-1.33-1.33-2.01-3.22-2.01-5.87,0-2.01,1.25-3.98,2.49-5.15,1.45-1.37,3.46-1.93,5.63-1.93,2.29,0,4.06.69,4.75,1.01.36.2.56.16.76-.04l.52-.48c.2-.16.32-.24.52-.24s.32.32.32.69c0,1.41.52,5.51.56,6.39,0,.2-.04.28-.2.32l-.48.12c-.12.04-.2,0-.24-.12-.32-1.17-.85-2.74-2.49-4.47-1.09-1.17-2.49-1.73-4.38-1.73-3.58,0-4.87,2.66-4.87,4.71,0,1.13.24,2.46,1.25,3.5,1.17,1.17,3.42,2.05,4.58,2.41,2.78.89,5.03,1.57,6.48,3.34,1.04,1.25,1.77,2.81,1.77,5.47,0,4.75-2.9,8.81-8.2,8.81-2.82,0-4.79-.84-6.4-2.09Z"/>
    </g>
  </g>
</svg>